<svg height="140" viewBox="0 0 120 140" width="120" xmlns="http://www.w3.org/2000/svg" xmlns:xlink="http://www.w3.org/1999/xlink"><mask id="a" fill="#fff"><path d="m0 0h60v60h41v53.953557c.000007 2.761428-2.2385721 5.000007-5 5.000007-.2948584 0-.5891389-.026082-.8794009-.077942-14.4614113-2.583748-29.1682777-3.875622-44.1205991-3.875622-15.0354283 0-30.0839204 1.306275-45.14547622 3.918824-2.72079326.471937-5.3090169-1.351115-5.78096047-4.071907-.04895168-.28221-.07356331-.568105-.07356331-.854529z" fill="#fff" fill-rule="evenodd"/></mask><g fill="none" fill-rule="evenodd"><path d="m0 0h120v130c0 5.522847-4.477153 10-10 10h-100c-5.5228475 0-10-4.477153-10-10z" fill="#dff8ff"/><path d="m110 70v53.953557c.000007 2.761428-2.238572 5.000007-5 5.000007-.294858 0-.589139-.026082-.879401-.077942-14.4614112-2.583748-29.1682776-3.875622-44.120599-3.875622-15.0354283 0-30.0839204 1.306275-45.1454762 3.918824-2.7207933.471937-5.30901692-1.351115-5.78096049-4.071907-.04895168-.28221-.07356331-.568105-.07356331-.854529v-53.992388zm-59.5 42c-.8284271 0-1.5.671573-1.5 1.5s.6715729 1.5 1.5 1.5 1.5-.671573 1.5-1.5-.6715729-1.5-1.5-1.5zm47-15c-1.3807119 0-2.5 1.1192881-2.5 2.5 0 1.380712 1.1192881 2.5 2.5 2.5s2.5-1.119288 2.5-2.5c0-1.3807119-1.1192881-2.5-2.5-2.5zm-66-17c-1.3807119 0-2.5 1.1192881-2.5 2.5s1.1192881 2.5 2.5 2.5 2.5-1.1192881 2.5-2.5-1.1192881-2.5-2.5-2.5z" fill="#ffb624" fill-opacity=".7"/><g fill="#61daff" mask="url(#a)" transform="translate(9 10)"><path d="m0 0h10v120h-10z" fill-opacity=".5"/><path d="m10 0h20v120h-20z" fill-opacity=".3"/><path d="m30 0h30v120h-30z" fill-opacity=".2"/></g></g></svg>